<svg xmlns="http://www.w3.org/2000/svg" width="71.138" height="30.405" viewBox="0 0 71.138 30.405">
  <g id="Group_132758" data-name="Group 132758" transform="translate(-533.5 -1348.822)" opacity="0.8">
    <path id="Line_6743" data-name="Line 6743" d="M66,.5H64v-1h2Zm-4,0H60v-1h2Zm-4,0H56v-1h2Zm-4,0H52v-1h2Zm-4,0H48v-1h2Zm-4,0H44v-1h2Zm-4,0H40v-1h2Zm-4,0H36v-1h2Zm-4,0H32v-1h2Zm-4,0H28v-1h2Zm-4,0H24v-1h2Zm-4,0H20v-1h2Zm-4,0H16v-1h2Zm-4,0H12v-1h2Zm-4,0H8v-1h2ZM6,.5H4v-1H6ZM2,.5H0v-1H2Z" transform="translate(533.5 1364.5)" fill="#616161"/>
    <path id="Path_109796" data-name="Path 109796" d="M-7859.387-7118.917l-.708-.707,1.415-1.414.707.707Zm2.828-2.828-.707-.707,1.414-1.415.707.707Zm2.828-2.829-.707-.707,1.414-1.415.708.707Zm2.829-2.829-.707-.707,1.414-1.414.707.707Zm2.828-2.829-.707-.707,1.414-1.414.707.707Zm2.829-2.829-.354-.354-.122.122-1.183-1.183.707-.707,1.536,1.536Zm-3.072-2.828-1.415-1.414.707-.707,1.415,1.414Zm-2.829-2.828-1.415-1.415.707-.707,1.415,1.414Zm-2.829-2.829-1.414-1.414.707-.707,1.414,1.414Zm-2.829-2.828-1.414-1.414.707-.708,1.414,1.415Zm-2.829-2.829-1.414-1.414.707-.707,1.414,1.414Z" transform="translate(8449.299 8498.145)" fill="#616161"/>
  </g>
</svg>
